<?xml version="1.0" encoding="UTF-8" standalone="no"?>
<!-- Created with Inkscape (http://www.inkscape.org/) -->

<svg
   xmlns:dc="http://purl.org/dc/elements/1.1/"
   xmlns:cc="http://creativecommons.org/ns#"
   xmlns:rdf="http://www.w3.org/1999/02/22-rdf-syntax-ns#"
   xmlns:svg="http://www.w3.org/2000/svg"
   xmlns="http://www.w3.org/2000/svg"
   xmlns:xlink="http://www.w3.org/1999/xlink"
   xmlns:sodipodi="http://sodipodi.sourceforge.net/DTD/sodipodi-0.dtd"
   xmlns:inkscape="http://www.inkscape.org/namespaces/inkscape"
   width="16"
   height="16"
   id="svg5711"
   version="1.1"
   inkscape:version="0.48.4 r9939"
   sodipodi:docname="icon16.svg">
  <defs
     id="defs5713"/>
  <sodipodi:namedview
     id="base"
     pagecolor="#ffffff"
     bordercolor="#666666"
     borderopacity="1.0"
     inkscape:pageopacity="0.0"
     inkscape:pageshadow="2"
     inkscape:zoom="27.402492"
     inkscape:cx="7.99995"
     inkscape:cy="8.0000053"
     inkscape:document-units="px"
     inkscape:current-layer="layer1"
     showgrid="false"
     fit-margin-top="0"
     fit-margin-left="0"
     fit-margin-right="0"
     fit-margin-bottom="0"
     inkscape:window-width="1680"
     inkscape:window-height="997"
     inkscape:window-x="-8"
     inkscape:window-y="-8"
     inkscape:window-maximized="1" />
<metadata
     id="metadata">
    <rdf:RDF>
      <cc:Work
         rdf:about="">
        <dc:format>image/svg+xml</dc:format>
        <dc:type
           rdf:resource="http://purl.org/dc/dcmitype/StillImage" />
        <dc:title>SocialMediaTXT</dc:title>
        <cc:license
           rdf:resource="http://creativecommons.org/licenses/by-sa/3.0/" />
        <dc:date>2014-04-20</dc:date>
        <dc:creator>
          <cc:Agent>
            <dc:title>Ernesto Chapon</dc:title>
          </cc:Agent>
        </dc:creator>
        <dc:language>en-US</dc:language>
        <dc:subject>
          <rdf:Bag>
            <rdf:li>Social Media</rdf:li>
            <rdf:li>Web crawler</rdf:li>
          </rdf:Bag>
        </dc:subject>
        <dc:contributor>
          <cc:Agent>
            <dc:title>Alexander Salas</dc:title>
          </cc:Agent>
        </dc:contributor>
        <dc:identifier></dc:identifier>
        <dc:source>https://github.com/socialmediatxt/socialmediatxt-iconography</dc:source>
        <dc:description>Iconography
</dc:description>
      </cc:Work>
      <cc:License
         rdf:about="http://creativecommons.org/licenses/by-sa/3.0/">
        <cc:permits
           rdf:resource="http://creativecommons.org/ns#Reproduction" />
        <cc:permits
           rdf:resource="http://creativecommons.org/ns#Distribution" />
        <cc:requires
           rdf:resource="http://creativecommons.org/ns#Notice" />
        <cc:requires
           rdf:resource="http://creativecommons.org/ns#Attribution" />
        <cc:permits
           rdf:resource="http://creativecommons.org/ns#DerivativeWorks" />
        <cc:requires
           rdf:resource="http://creativecommons.org/ns#ShareAlike" />
      </cc:License>
    </rdf:RDF>
  </metadata>
  <g
     inkscape:label="Capa 1"
     inkscape:groupmode="layer"
     id="layer1"
     transform="translate(-318,-548.36218)">
    <path
       id="rect4000-6-6"
       style="fill:#333333;fill-opacity:0.50196081;stroke:none"
       d="m 320.70751,552.14005 c -0.59793,0.0448 -1.06124,0.37998 -1.25,0.88281 -0.30576,0.81449 -0.21477,1.93035 0.10156,2.36719 0.14566,0.20115 0.32973,0.37355 0.44531,0.48437 0.11558,0.11083 0.0968,0.23195 0.0937,0.375 -0.003,0.1544 -0.12744,0.33735 -0.23437,0.47657 -0.73479,0.0891 -1.40908,0.26929 -1.85938,0.5625 l 0,2.29687 6.64063,0 c 0,0 -0.12144,-1.92069 -0.69531,-2.28906 -0.39192,-0.25158 -1.1078,-0.45017 -1.88282,-0.55469 -0.10706,-0.13985 -0.23102,-0.33335 -0.23437,-0.49219 -0.003,-0.13045 -0.0427,-0.2445 0.0781,-0.35156 0.12085,-0.10706 0.32117,-0.26182 0.46094,-0.45312 0.2933,-0.40145 0.43327,-2.12148 0,-2.67969 -0.4332,-0.55821 -0.87006,-0.61179 -1.39844,-0.625 -0.0903,-0.006 -0.1802,-0.006 -0.26562,0 z m 10.04592,0.008 c -0.59793,0.0448 -1.06905,0.37218 -1.25781,0.875 -0.30576,0.8145 -0.21477,1.93816 0.10156,2.375 0.14566,0.20116 0.32973,0.36574 0.44531,0.47656 0.11558,0.11083 0.0968,0.23196 0.0937,0.375 -0.003,0.1544 -0.11963,0.33735 -0.22656,0.47657 -0.73951,0.0897 -1.42476,0.27376 -1.875,0.57031 -0.67153,0.4423 -0.67969,2.28906 -0.67969,2.28906 l 6.64063,0 0,-2.28906 c -0.39192,-0.25157 -1.10779,-0.45017 -1.88282,-0.55469 -0.10706,-0.13985 -0.23883,-0.33335 -0.24218,-0.49219 -0.003,-0.13045 -0.0349,-0.2445 0.0859,-0.35156 0.12085,-0.10705 0.31336,-0.26181 0.45313,-0.45312 0.2933,-0.40145 0.43328,-2.12148 0,-2.67969 -0.4332,-0.5582 -0.87006,-0.60398 -1.39844,-0.61719 -0.0903,-0.006 -0.17239,-0.006 -0.25781,0 z"
       inkscape:connector-curvature="0" />
    <path
       sodipodi:nodetypes="ssszccsccscczsccs"
       inkscape:connector-curvature="0"
       id="path3116-8"
       d="m 325.62354,551.14315 c -0.8392,0.0629 -1.49477,0.5287 -1.7597,1.23442 -0.42914,1.14315 -0.30389,2.7137 0.14007,3.32681 0.20444,0.28232 0.46813,0.51857 0.63035,0.67412 0.16221,0.15554 0.13555,0.32451 0.13132,0.52528 -0.005,0.2167 -0.17385,0.47873 -0.32393,0.67412 -1.03791,0.12584 -1.99451,0.38046 -2.62643,0.79668 -0.94249,0.62078 -0.96302,3.213 -0.96302,3.213 l 10.2956,0 c 0,0 -0.16634,-2.69599 -0.97178,-3.213 -0.55006,-0.35308 -1.55619,-0.63248 -2.64394,-0.77917 -0.15026,-0.19628 -0.32797,-0.4687 -0.33268,-0.69163 -0.004,-0.18309 -0.0558,-0.34001 0.11382,-0.49027 0.1696,-0.15025 0.44292,-0.37059 0.63909,-0.63909 0.41164,-0.56343 0.60811,-2.97235 0,-3.75579 -0.608,-0.78345 -1.21948,-0.85694 -1.96107,-0.87548 -0.12674,-0.008 -0.24781,-0.009 -0.3677,0 z"
       style="fill:#666666;fill-opacity:1;stroke:none" />
  </g>
</svg>
