<?xml version="1.0" encoding="UTF-8" standalone="no"?>
<!-- Created with Inkscape (http://www.inkscape.org/) -->

<svg
   xmlns:dc="http://purl.org/dc/elements/1.1/"
   xmlns:cc="http://creativecommons.org/ns#"
   xmlns:rdf="http://www.w3.org/1999/02/22-rdf-syntax-ns#"
   xmlns:svg="http://www.w3.org/2000/svg"
   xmlns="http://www.w3.org/2000/svg"
   xmlns:sodipodi="http://sodipodi.sourceforge.net/DTD/sodipodi-0.dtd"
   xmlns:inkscape="http://www.inkscape.org/namespaces/inkscape"
   width="64"
   height="64"
   id="svg5711"
   version="1.1"
   inkscape:version="0.48.4 r9939"
   sodipodi:docname="icon64.svg">
  <defs
     id="defs5713" />
  <sodipodi:namedview
     id="base"
     pagecolor="#ffffff"
     bordercolor="#666666"
     borderopacity="1.0"
     inkscape:pageopacity="0.0"
     inkscape:pageshadow="2"
     inkscape:zoom="12.65625"
     inkscape:cx="18.923457"
     inkscape:cy="32"
     inkscape:document-units="px"
     inkscape:current-layer="layer1"
     showgrid="false"
     fit-margin-top="0"
     fit-margin-left="0"
     fit-margin-right="0"
     fit-margin-bottom="0"
     inkscape:window-width="1680"
     inkscape:window-height="997"
     inkscape:window-x="-8"
     inkscape:window-y="-8"
     inkscape:window-maximized="1" />
  <metadata
     id="metadata">
    <rdf:RDF>
      <cc:Work
         rdf:about="">
        <dc:format>image/svg+xml</dc:format>
        <dc:type
           rdf:resource="http://purl.org/dc/dcmitype/StillImage" />
        <dc:title>SocialMediaTXT</dc:title>
        <cc:license
           rdf:resource="http://creativecommons.org/licenses/by-sa/3.0/" />
        <dc:date>2014-04-20</dc:date>
        <dc:creator>
          <cc:Agent>
            <dc:title>Ernesto Chapon</dc:title>
          </cc:Agent>
        </dc:creator>
        <dc:language>en-US</dc:language>
        <dc:subject>
          <rdf:Bag>
            <rdf:li>Social Media</rdf:li>
            <rdf:li>Web crawler</rdf:li>
          </rdf:Bag>
        </dc:subject>
        <dc:contributor>
          <cc:Agent>
            <dc:title>Alexander Salas</dc:title>
          </cc:Agent>
        </dc:contributor>
        <dc:identifier />
        <dc:source>https://github.com/socialmediatxt/socialmediatxt-iconography</dc:source>
        <dc:description>Iconography
</dc:description>
      </cc:Work>
      <cc:License
         rdf:about="http://creativecommons.org/licenses/by-sa/3.0/">
        <cc:permits
           rdf:resource="http://creativecommons.org/ns#Reproduction" />
        <cc:permits
           rdf:resource="http://creativecommons.org/ns#Distribution" />
        <cc:requires
           rdf:resource="http://creativecommons.org/ns#Notice" />
        <cc:requires
           rdf:resource="http://creativecommons.org/ns#Attribution" />
        <cc:permits
           rdf:resource="http://creativecommons.org/ns#DerivativeWorks" />
        <cc:requires
           rdf:resource="http://creativecommons.org/ns#ShareAlike" />
      </cc:License>
    </rdf:RDF>
  </metadata>
  <g
     inkscape:label="Capa 1"
     inkscape:groupmode="layer"
     id="layer1"
     transform="translate(-318,-500.36218)">
    <path
       id="rect4000-6-6"
       style="fill:#8c98a4;fill-opacity:1;stroke:none"
       d="m 328.83003,515.47367 c -2.39172,0.17936 -4.24495,1.51995 -5,3.53125 -1.22304,3.25798 -0.85906,7.72139 0.40625,9.46875 0.58264,0.80462 1.31894,1.49421 1.78125,1.9375 0.46233,0.44329 0.38706,0.9278 0.375,1.5 -0.013,0.61759 -0.50978,1.3494 -0.9375,1.90625 -2.93916,0.35637 -5.63632,1.07718 -7.4375,2.25 l 0,9.1875 26.5625,0 c 0,0 -0.48576,-7.68277 -2.78125,-9.15625 -1.56767,-1.00629 -4.43117,-1.80068 -7.53125,-2.21875 -0.42824,-0.5594 -0.92409,-1.33341 -0.9375,-1.96875 -0.011,-0.52181 -0.17089,-0.97802 0.3125,-1.40625 0.48338,-0.42823 1.28468,-1.04726 1.84375,-1.8125 1.17318,-1.60578 1.7331,-8.48592 0,-10.71875 -1.73279,-2.23282 -3.48023,-2.44715 -5.59375,-2.5 -0.36122,-0.0227 -0.72082,-0.0257 -1.0625,0 z m 40.18369,0.0313 c -2.39172,0.17936 -4.2762,1.4887 -5.03125,3.5 -1.22304,3.25798 -0.85906,7.75264 0.40625,9.5 0.58264,0.80462 1.31894,1.46296 1.78125,1.90625 0.46233,0.44329 0.38706,0.9278 0.375,1.5 -0.013,0.61759 -0.47853,1.3494 -0.90625,1.90625 -2.95803,0.35866 -5.69903,1.09503 -7.5,2.28125 -2.68612,1.76922 -2.71875,9.15625 -2.71875,9.15625 l 26.5625,0 0,-9.15625 c -1.56767,-1.00629 -4.43117,-1.80068 -7.53125,-2.21875 -0.42824,-0.5594 -0.95533,-1.33341 -0.96875,-1.96875 -0.011,-0.52181 -0.13964,-0.97802 0.34375,-1.40625 0.48338,-0.42823 1.25343,-1.04726 1.8125,-1.8125 1.17318,-1.60578 1.7331,-8.48592 0,-10.71875 -1.73279,-2.23282 -3.48023,-2.4159 -5.59375,-2.46875 -0.36122,-0.0227 -0.68957,-0.0257 -1.03125,0 z"
       inkscape:connector-curvature="0" />
    <path
       sodipodi:nodetypes="ssszccsccscczsccs"
       inkscape:connector-curvature="0"
       id="path3116-8"
       d="m 348.49418,511.48607 c -3.3568,0.25174 -5.97911,2.11482 -7.03882,4.93769 -1.71656,4.5726 -1.21557,10.85479 0.5603,13.30723 0.81774,1.1293 1.87251,2.07431 2.52137,2.69647 0.64887,0.62216 0.54221,1.29805 0.52529,2.10114 -0.0183,0.86681 -0.6954,1.91492 -1.29571,2.69647 -4.15163,0.50337 -7.97803,1.52187 -10.50571,3.18673 -3.76998,2.48312 -3.85209,12.85199 -3.85209,12.85199 l 41.18239,0 c 0,0 -0.66536,-10.78394 -3.88711,-12.85199 -2.20024,-1.41233 -6.22475,-2.52992 -10.57575,-3.11669 -0.60104,-0.78512 -1.3119,-1.8748 -1.33073,-2.76651 -0.0155,-0.73236 -0.22318,-1.36004 0.45525,-1.96106 0.67843,-0.60103 1.77172,-1.48238 2.55639,-2.55639 1.64656,-2.25373 2.43242,-11.88939 0,-15.02317 -2.43199,-3.13379 -4.87793,-3.42773 -7.84427,-3.50191 -0.50698,-0.0319 -0.99125,-0.036 -1.4708,0 z"
       style="fill:#3f4a56;fill-opacity:1;stroke:none" />
  </g>
</svg>
